# xmcd
#
# Track frame offsets: 
#        150
#        13350
#        24035
#        36310
#        50187
#        60027
#        74475
#        85702
#        98420
#        109757
#
# Disc length: 1636 seconds
#
# Revision: 2
# Processed by: cddbd v1.5.2PL0 Copyright (c) Steve Scherf et al.
# Submitted via: ExactAudioCopyFreeDBPlugin 1.0
#
DISCID=7606620a
DTITLE=T- Bone Walker - Cold Cold Feeling
DYEAR=1994
DGENRE=Blues
TTITLE0=I Got The Blues
TTITLE1=Travelin' Blues
TTITLE2=I Get So Weary
TTITLE3=Get These Blues Off Me
TTITLE4=Party Girl
TTITLE5=Cold Cold Feeling
TTITLE6=The Hustle Is On
TTITLE7=Blues Is A Woman
TTITLE8=Strollin' With Bone
TTITLE9=Love Is Just A Gamble
EXTD=
EXTT0=
EXTT1=
EXTT2=
EXTT3=
EXTT4=
EXTT5=
EXTT6=
EXTT7=
EXTT8=
EXTT9=
PLAYORDER=
